name C:/MyDriveSym/Projects/mobilecap/Data\Session20210820_0002\mocap\ForceDataProcessed\walking2_forces.mot
datacolumns 19
datarows 22
range 0.00000000 0.01050000
endheader 
time	R_ground_force_vx	R_ground_force_vy	R_ground_force_vz	R_ground_force_px	R_ground_force_py	R_ground_force_pz	R_ground_torque_x	R_ground_torque_y	R_ground_torque_z	L_ground_force_vx	L_ground_force_vy	L_ground_force_vz	L_ground_force_px	L_ground_force_py	L_ground_force_pz	L_ground_torque_x	L_ground_torque_y	L_ground_torque_z	
          0.00000000	         13.89517500	        158.72117800	          1.48253000	          0.13065400	          0.00600000	         -0.16048000	          0.00000000	          0.62348800	          0.00000000	          0.00000000	          0.00000000	          0.00000000	          0.73999300	          0.00000000	         -0.22286200	          0.00000000	          0.00000000	          0.00000000	
          0.00050000	         13.40080600	        160.50077800	          1.46835300	          0.13065400	          0.00600000	         -0.16048000	          0.00000000	          0.62544000	          0.00000000	          0.00000000	          0.00000000	          0.00000000	          0.73999300	          0.00000000	         -0.22286200	          0.00000000	          0.00000000	          0.00000000	
          0.00100000	         12.90241600	        162.29600400	          1.45347000	          0.13065400	          0.00600000	         -0.16048000	          0.00000000	          0.62738800	          0.00000000	          0.00000000	          0.00000000	          0.00000000	          0.73999300	          0.00000000	         -0.22286200	          0.00000000	          0.00000000	          0.00000000	
          0.00150000	         12.40001300	        164.10685200	          1.43787000	          0.13065400	          0.00600000	         -0.16048000	          0.00000000	          0.62933200	          0.00000000	          0.00000000	          0.00000000	          0.00000000	          0.73999300	          0.00000000	         -0.22286200	          0.00000000	          0.00000000	          0.00000000	
          0.00200000	         11.89360500	        165.93331600	          1.42154300	          0.13097600	          0.00600000	         -0.16046600	          0.00000000	          0.63127100	          0.00000000	          0.00000000	          0.00000000	          0.00000000	          0.73999300	          0.00000000	         -0.22286200	          0.00000000	          0.00000000	          0.00000000	
          0.00250000	         11.38320200	        167.77538600	          1.40447800	          0.13129500	          0.00600000	         -0.16045100	          0.00000000	          0.63320600	          0.00000000	          0.00000000	          0.00000000	          0.00000000	          0.73999300	          0.00000000	         -0.22286200	          0.00000000	          0.00000000	          0.00000000	
          0.00300000	         10.86881500	        169.63305100	          1.38666500	          0.13161300	          0.00600000	         -0.16043700	          0.00000000	          0.63513600	          0.00000000	          0.00000000	          0.00000000	          0.00000000	          0.73999300	          0.00000000	         -0.22286200	          0.00000000	          0.00000000	          0.00000000	
          0.00350000	         10.35045500	        171.50629800	          1.36809500	          0.13192700	          0.00600000	         -0.16042200	          0.00000000	          0.63706100	          0.00000000	          0.00000000	          0.00000000	          0.00000000	          0.73999300	          0.00000000	         -0.22286200	          0.00000000	          0.00000000	          0.00000000	
          0.00400000	          9.82813500	        173.39511100	          1.34875600	          0.13223900	          0.00600000	         -0.16040800	          0.00000000	          0.63898200	          0.00000000	          0.00000000	          0.00000000	          0.00000000	          0.73999300	          0.00000000	         -0.22286200	          0.00000000	          0.00000000	          0.00000000	
          0.00450000	          9.30186900	        175.29947300	          1.32863900	          0.13254900	          0.00600000	         -0.16039300	          0.00000000	          0.64089800	          0.00000000	          0.00000000	          0.00000000	          0.00000000	          0.73999300	          0.00000000	         -0.22286200	          0.00000000	          0.00000000	          0.00000000	
          0.00500000	          8.77167200	        177.21936300	          1.30773200	          0.13285600	          0.00600000	         -0.16037900	          0.00000000	          0.64280900	          0.00000000	          0.00000000	          0.00000000	          0.00000000	          0.73999300	          0.00000000	         -0.22286200	          0.00000000	          0.00000000	          0.00000000	
          0.00550000	          8.23756000	        179.15476000	          1.28602700	          0.13316100	          0.00600000	         -0.16036400	          0.00000000	          0.64471600	          0.00000000	          0.00000000	          0.00000000	          0.00000000	          0.73999300	          0.00000000	         -0.22286200	          0.00000000	          0.00000000	          0.00000000	
          0.00600000	          7.69955000	        181.10564000	          1.26351100	          0.13346300	          0.00600000	         -0.16035000	          0.00000000	          0.64661700	          0.00000000	          0.00000000	          0.00000000	          0.00000000	          0.73999300	          0.00000000	         -0.22286200	          0.00000000	          0.00000000	          0.00000000	
          0.00650000	          7.15766000	        183.07197500	          1.24017600	          0.13376300	          0.00600000	         -0.16033500	          0.00000000	          0.64851400	          0.00000000	          0.00000000	          0.00000000	          0.00000000	          0.73999300	          0.00000000	         -0.22286200	          0.00000000	          0.00000000	          0.00000000	
          0.00700000	          6.61191100	        185.05373700	          1.21600900	          0.13406100	          0.00600000	         -0.16032000	          0.00000000	          0.65040500	          0.00000000	          0.00000000	          0.00000000	          0.00000000	          0.73999300	          0.00000000	         -0.22286200	          0.00000000	          0.00000000	          0.00000000	
          0.00750000	          6.06232200	        187.05089400	          1.19100200	          0.13435600	          0.00600000	         -0.16030600	          0.00000000	          0.65229200	          0.00000000	          0.00000000	          0.00000000	          0.00000000	          0.73999300	          0.00000000	         -0.22286200	          0.00000000	          0.00000000	          0.00000000	
          0.00800000	          5.50891500	        189.06341500	          1.16514200	          0.13464900	          0.00600000	         -0.16029100	          0.00000000	          0.65417300	          0.00000000	          0.00000000	          0.00000000	          0.00000000	          0.73999300	          0.00000000	         -0.22286200	          0.00000000	          0.00000000	          0.00000000	
          0.00850000	          4.95171500	        191.09126400	          1.13842100	          0.13494000	          0.00600000	         -0.16027700	          0.00000000	          0.65604900	          0.00000000	          0.00000000	          0.00000000	          0.00000000	          0.73999300	          0.00000000	         -0.22286200	          0.00000000	          0.00000000	          0.00000000	
          0.00900000	          4.39074600	        193.13440200	          1.11082600	          0.13522800	          0.00600000	         -0.16026200	          0.00000000	          0.65791900	          0.00000000	          0.00000000	          0.00000000	          0.00000000	          0.73999300	          0.00000000	         -0.22286200	          0.00000000	          0.00000000	          0.00000000	
          0.00950000	          3.82603200	        195.19279000	          1.08234800	          0.13551500	          0.00600000	         -0.16024800	          0.00000000	          0.65978400	          0.00000000	          0.00000000	          0.00000000	          0.00000000	          0.73999300	          0.00000000	         -0.22286200	          0.00000000	          0.00000000	          0.00000000	
          0.01000000	          3.25760200	        197.26638600	          1.05297500	          0.13579900	          0.00600000	         -0.16023300	          0.00000000	          0.66164300	          0.00000000	          0.00000000	          0.00000000	          0.00000000	          0.73999300	          0.00000000	         -0.22286200	          0.00000000	          0.00000000	          0.00000000	
          0.01050000	          2.68548300	        199.35514500	          1.02269700	          0.13608100	          0.00600000	         -0.16021900	          0.00000000	          0.66349700	          0.00000000	          0.00000000	          0.00000000	          0.00000000	          0.73999300	          0.00000000	         -0.22286200	          0.00000000	          0.00000000	          0.00000000	
